<svg version="1.1" id="Layer_1" xmlns="http://www.w3.org/2000/svg" xmlns:xlink="http://www.w3.org/1999/xlink" x="0px" y="0px"
	 width="100%" viewBox="0 0 192 192" enable-background="new 0 0 192 192" xml:space="preserve">
<path fill="#000000" opacity="1.000000" stroke="none" 
	d="
M43.571537,1.000000 
	C49.626553,6.678172 55.281509,12.328648 60.861572,18.052143 
	C62.444450,19.675705 64.329590,20.535755 66.444984,21.160177 
	C74.425941,23.516001 82.321083,26.198412 90.377884,28.249853 
	C96.567596,29.825893 101.110565,33.241676 104.767708,38.280365 
	C111.617004,47.717121 118.719017,56.974262 125.406937,66.522522 
	C128.187515,70.492310 131.365311,73.554451 135.892654,75.323769 
	C137.889801,76.104286 139.731979,77.317863 141.574524,78.448875 
	C144.323029,80.136009 146.728729,82.406334 144.565308,85.722878 
	C142.585800,88.757492 139.591049,87.649925 137.031418,86.052490 
	C133.483429,83.838219 129.773804,81.988739 125.849838,80.538422 
	C122.228767,79.200035 118.529755,78.401344 114.656059,78.287155 
	C108.453423,78.104332 102.244049,76.657654 98.423424,71.762718 
	C87.713089,58.040798 72.978035,52.324585 56.794273,48.409477 
	C45.337959,45.638012 42.005482,32.979813 49.691185,23.934566 
	C50.213970,23.319302 50.749077,22.714502 51.412121,21.950897 
	C48.548721,18.047670 45.154510,14.950413 41.808102,12.046049 
	C31.962034,21.925446 22.264219,31.656088 11.881079,42.074375 
	C16.737558,46.819530 21.976206,52.056618 27.371643,57.126862 
	C28.727612,58.401100 30.566696,57.534660 32.152145,57.067627 
	C35.524826,56.074120 38.913387,55.334087 42.474579,55.667145 
	C47.882526,56.172909 52.006268,59.860580 53.075630,65.982597 
	C53.532009,68.595299 54.297745,70.234123 56.906944,71.070946 
	C58.833797,71.688927 61.268688,73.197350 61.312210,74.834007 
	C61.567116,84.420250 73.652077,86.251274 74.353539,95.245911 
	C74.556267,97.845375 75.761513,98.866127 77.934296,99.920967 
	C86.031212,103.851891 88.027870,113.770790 81.960915,120.448372 
	C80.065063,122.535049 79.571754,124.204865 79.945618,127.003502 
	C80.806549,133.448090 80.363350,139.968475 79.708969,146.447250 
	C79.542419,148.096237 79.244194,149.811615 79.521912,151.406738 
	C79.919327,153.689484 81.360870,155.558762 83.880272,155.389389 
	C86.089928,155.240860 87.375923,153.520035 87.603821,151.315201 
	C87.945885,148.005997 88.057739,144.672806 88.407967,141.364685 
	C88.698212,138.623184 89.788986,136.439194 93.095528,136.782318 
	C96.309158,137.115784 97.127853,139.545303 97.075958,142.182938 
	C96.984406,146.835953 96.565292,151.481674 96.339989,156.133194 
	C96.198288,159.058640 96.835213,161.780487 100.391479,161.773346 
	C103.846336,161.766403 104.601036,159.105927 104.664619,156.177094 
	C104.722466,153.512619 104.663017,150.832336 104.943810,148.189667 
	C105.232452,145.473190 106.416451,143.326599 109.701164,143.624939 
	C112.755974,143.902405 113.359192,146.037521 113.336746,148.610825 
	C113.296051,153.276230 113.284508,157.941925 113.236893,162.607254 
	C113.208687,165.371628 113.176491,168.370041 116.815384,168.649643 
	C120.505989,168.933197 120.897049,165.773026 121.260834,163.157059 
	C121.625992,160.531281 121.578148,157.847412 121.698875,155.188446 
	C121.828537,152.333069 123.031075,150.145782 126.099815,150.216812 
	C129.142700,150.287216 130.352936,152.480896 130.299652,155.357834 
	C130.216385,159.854767 130.209076,164.358978 129.921478,168.844208 
	C129.727707,171.865997 129.595490,175.129242 133.314575,175.429062 
	C137.465302,175.763657 137.639740,172.231171 137.776184,169.101761 
	C138.385147,155.134674 139.044571,141.169800 139.651367,127.202614 
	C140.098862,116.901917 145.940628,113.528328 154.987808,118.472740 
	C158.032349,120.136620 160.938843,122.053070 165.001724,124.517151 
	C163.893143,119.201775 162.100357,115.257805 160.316315,111.316788 
	C159.316635,109.108421 158.348755,106.784843 160.738342,104.984428 
	C164.051025,102.488518 166.364609,104.262878 167.974762,107.284882 
	C171.602890,114.094261 174.045822,121.360649 175.189438,128.963760 
	C175.617477,131.809540 176.617737,133.956253 178.613632,135.889893 
	C183.279984,140.410660 187.864975,145.015350 192.741455,149.793030 
	C193.000000,153.030594 193.000000,156.061188 192.703247,159.691330 
	C181.346451,170.938446 170.250641,181.550552 160.000000,193.000000 
	C156.638718,193.000000 153.277420,193.000000 149.376236,192.669586 
	C145.129471,187.567474 141.984207,181.805405 134.199081,184.672684 
	C133.221451,185.032730 131.612427,184.901138 130.804840,184.306396 
	C124.482193,179.649948 116.682808,178.567352 109.874298,175.328140 
	C106.180862,173.570953 103.510345,170.474823 98.667892,170.942566 
	C95.351280,171.262939 92.305717,168.988708 90.288841,166.165802 
	C88.934753,164.270569 87.500809,163.963470 85.246994,164.134552 
	C76.794266,164.776154 70.866562,159.227646 70.835205,150.661163 
	C70.818794,146.178864 71.511536,141.697617 71.593140,137.210587 
	C71.809166,125.332726 71.731071,124.715088 60.824554,128.585953 
	C53.506523,131.183212 46.052387,127.707184 44.378899,120.762634 
	C43.384663,116.636795 41.756931,114.231743 37.990204,112.389915 
	C33.304569,110.098785 34.338520,103.761894 31.385128,100.794090 
	C28.195963,97.589378 23.418526,95.895393 22.404083,90.787415 
	C21.788303,87.686813 20.759068,85.491356 17.456234,84.115173 
	C14.166277,82.744347 12.370293,79.590874 11.539108,75.927391 
	C10.097662,69.574142 13.439505,65.164864 17.620068,60.913837 
	C12.301560,54.750080 6.679165,49.347740 1.000000,44.000000 
	C1.000000,42.285641 1.000000,40.571285 1.266309,38.229492 
	C14.021208,25.732946 26.300009,13.654813 38.000000,1.000000 
	C39.714359,1.000000 41.428715,1.000000 43.571537,1.000000 
M148.492035,126.917168 
	C147.914841,140.718369 147.673309,154.545792 146.598572,168.308136 
	C146.156128,173.973846 147.087692,178.196182 151.548050,181.888229 
	C153.941422,183.869354 155.371857,184.346497 157.704880,181.956360 
	C165.615570,173.851929 173.643005,165.858627 181.754532,157.954926 
	C184.067413,155.701309 184.097885,153.974884 181.903900,151.668884 
	C173.265549,142.589539 164.015945,134.248611 153.363235,127.575523 
	C152.040649,126.747032 150.702621,125.401627 148.492035,126.917168 
M91.668938,52.791061 
	C96.200691,57.204346 100.606293,61.758423 105.313416,65.975983 
	C107.966484,68.353127 111.091187,70.266800 115.375069,68.954170 
	C114.923492,67.903557 114.731735,67.079605 114.273758,66.448997 
	C108.109962,57.961864 101.920586,49.493210 95.708794,41.041115 
	C94.267525,39.080059 92.181480,38.050053 89.902061,37.369152 
	C80.978790,34.703587 72.031761,32.114098 63.142921,29.338261 
	C59.120838,28.082233 55.935272,29.020100 54.662933,32.971741 
	C53.320927,37.139759 56.421387,38.963257 59.855770,40.044426 
	C67.156029,42.342594 74.471809,44.591854 81.789543,46.833984 
	C85.344009,47.923061 88.638512,49.431099 91.668938,52.791061 
M52.387363,117.230431 
	C52.920029,119.490097 54.492287,121.034126 56.644783,120.468651 
	C62.557228,118.915382 68.388916,117.027649 74.181686,115.063278 
	C75.809212,114.511368 76.812134,112.952789 76.462036,111.062927 
	C76.129677,109.268883 74.635857,107.497269 73.184937,107.796494 
	C66.147781,109.247765 58.867561,110.187187 52.838337,114.639114 
	C52.435158,114.936821 52.500008,115.868378 52.387363,117.230431 
M44.484020,88.818649 
	C47.178356,87.968506 49.956886,87.314270 52.539520,86.204239 
	C54.491024,85.365471 55.799149,83.627052 54.785362,81.348175 
	C53.903400,79.365623 52.167057,78.174500 49.925217,78.818001 
	C44.494358,80.376869 39.074055,81.996780 33.736443,83.843414 
	C31.791285,84.516373 30.211523,86.137985 31.028728,88.502022 
	C31.911707,91.056320 33.897240,92.085587 36.588947,91.299095 
	C38.981647,90.599976 41.351048,89.821121 44.484020,88.818649 
M48.860443,105.374374 
	C52.986313,104.103287 57.128109,102.881081 61.232407,101.543777 
	C63.932190,100.664116 66.455597,99.223511 65.325371,95.874420 
	C64.305435,92.852150 61.602268,93.044342 59.023010,93.798286 
	C54.880932,95.009056 50.729492,96.191650 46.613251,97.485542 
	C44.045750,98.292595 41.079510,99.224030 41.717880,102.675812 
	C42.361660,106.156837 45.290897,106.053581 48.860443,105.374374 
M44.429012,68.343849 
	C44.140945,65.473320 42.282356,63.992565 39.696918,64.453583 
	C33.824814,65.500679 28.107244,67.258827 22.617189,69.625687 
	C20.719862,70.443665 19.945398,72.156792 20.555841,74.167694 
	C21.183180,76.234245 22.935249,77.083817 24.871126,76.657692 
	C28.744499,75.805092 32.571651,74.712646 36.371559,73.565758 
	C39.325920,72.674072 42.689983,72.375786 44.429012,68.343849 
z"/>
<path fill="#000000" opacity="1.000000" stroke="none" 
	d="
M151.613281,90.665894 
	C154.636902,89.322258 156.398651,90.366020 157.459839,92.855652 
	C158.286942,94.796158 157.687576,96.464630 155.997467,97.574844 
	C154.359787,98.650597 152.425476,98.789398 151.011765,97.342819 
	C148.957123,95.240402 149.154434,92.949715 151.613281,90.665894 
z"/>
</svg>