<svg width="628" height="897" viewBox="0 0 628 897" fill="none" xmlns="http://www.w3.org/2000/svg">
<path d="M329 59H150V79H329V59Z" fill="#312E81"/>
<path d="M329 264H150V284H329V264Z" fill="#312E81"/>
<path d="M329 313H150V333H329V313Z" fill="#312E81"/>
<path d="M524.062 560.5C520 548.312 508.437 539.25 495.625 539.25H480.937V188.312C480.937 152.062 451.875 123 415.625 123H65.3125C29.0625 123 0 152.062 0 188.312V753.938C0 790.188 29.0625 819.25 65.3125 819.25H415C419.062 819.25 422.187 822.687 422.187 826.438C422.187 830.5 418.75 833.625 415 833.625H275.937L383.75 896.125H627.187L524.062 560.5ZM240.937 792.062C231.25 792.062 224.062 784.875 224.062 775.188C224.062 765.5 231.25 758.312 240.937 758.312C250.625 758.312 257.812 765.5 257.812 775.188C257.812 784.875 250.937 792.062 240.937 792.062ZM433.75 539.562H370.625C354.375 539.562 340.625 553.312 340.625 569.562C340.625 585.812 354.375 599.562 370.625 599.562H433.75V730.812H47.8125V211H433.75V539.562Z" fill="#312E81"/>
<path fill-rule="evenodd" clip-rule="evenodd" d="M158.794 389.317L199.857 421.998L241 389.254L282.143 421.998L323.222 389.304L359.429 416.954V236H390V452H364.175L323.334 422.397L282.143 453.247L241 422.433L199.857 453.247L158.665 422.397L117.814 452H92V236H122.571V416.689L158.794 389.317ZM359.429 211H390V123H359.429V211ZM122.571 211V123H92V211H122.571ZM122.571 46.0847V98H92V46.0847C92 20.6276 112.667 0 138.143 0H343.857C369.333 0 390 20.6276 390 46.0847V98H359.429V46.0847C359.429 37.5134 352.458 30.5424 343.857 30.5424H138.143C129.542 30.5424 122.571 37.5134 122.571 46.0847Z" fill="#312E81"/>
</svg>
