<svg width="750" height="500" viewBox="0 0 750 500" fill="none" xmlns="http://www.w3.org/2000/svg">
<path d="M376.253 39.554C360.616 39.432 345.503 41.592 331.223 45.716C323.147 48.048 320.311 58.023 326.031 64.182L388.411 131.348C393.445 136.768 393.351 145.234 388.202 150.32C383.249 155.212 375.35 155.244 370.161 150.392L360.669 141.516C358.052 139.069 354.021 139.269 351.752 141.96C349.675 144.424 349.801 148.138 352.043 150.541L389.202 190.354C394.292 195.807 393.848 204.444 388.239 209.095C383.235 213.244 375.877 212.709 371.316 207.864L330.574 164.585C327.638 161.467 322.849 161.281 319.813 164.168C316.671 167.156 316.627 172.264 319.715 175.442L338.739 195.018C342.579 198.894 342.445 205.226 338.448 208.761C334.767 212.017 329.168 211.665 325.764 207.963L290.054 170.83C286.958 167.611 281.93 167.578 278.924 170.757C275.993 173.857 276.097 178.846 279.158 181.943L325.52 228.854C330.233 233.737 330.327 241.502 325.731 246.304C320.853 251.401 312.689 251.116 307.948 245.684L238.934 166.607C232.64 159.396 220.853 162.864 219.357 172.318C218.035 180.667 217.37 189.235 217.415 197.966C217.859 284.48 290.644 355.871 377.152 354.714C462.403 353.574 531.313 284.74 532.573 199.517C533.849 113.198 462.577 40.226 376.253 39.554Z" fill="#E4A4A7"/>
<path d="M273.316 162.87C274.237 158.953 271.809 155.031 267.893 154.11C263.976 153.189 260.054 155.617 259.133 159.533C258.212 163.449 260.64 167.371 264.556 168.293C268.472 169.214 272.394 166.786 273.316 162.87Z" fill="#E4A4A7"/>
<path d="M343.629 141.961C347.652 141.961 350.914 138.699 350.914 134.676C350.914 130.653 347.652 127.391 343.629 127.391C339.606 127.391 336.344 130.653 336.344 134.676C336.344 138.699 339.606 141.961 343.629 141.961Z" fill="#E4A4A7"/>
<path d="M308.407 44.337C312.43 44.337 315.692 41.0754 315.692 37.052C315.692 33.0286 312.43 29.767 308.407 29.767C304.384 29.767 301.122 33.0286 301.122 37.052C301.122 41.0754 304.384 44.337 308.407 44.337Z" fill="#E4A4A7"/>
<path d="M0 383.725H750" stroke="#99C0CE" stroke-width="2" stroke-miterlimit="10"/>
<path d="M694.524 157.311C694.524 127.939 670.713 104.128 641.342 104.128C611.971 104.128 588.16 127.939 588.16 157.311C588.16 176.569 598.397 193.436 613.725 202.768L613.314 245.308C613.283 248.471 615.839 251.051 619.002 251.051C622.143 251.051 624.69 248.505 624.69 245.363V217.162C624.69 214.191 627.098 211.783 630.069 211.783C633.04 211.783 635.448 214.191 635.448 217.162V258.178C635.448 261.594 638.218 264.364 641.634 264.364C645.051 264.364 647.82 261.594 647.82 258.178V225.836C647.82 223.422 649.777 221.465 652.191 221.465C654.605 221.465 656.562 223.422 656.562 225.836V232.035C656.562 235.481 659.356 238.275 662.802 238.275C666.248 238.275 669.042 235.481 669.042 232.035V202.715C684.323 193.373 694.524 176.535 694.524 157.311Z" fill="white"/>
<path d="M699.002 101.021C707.272 96.204 710.072 85.5951 705.255 77.3252C700.438 69.0553 689.829 66.256 681.559 71.0728C673.289 75.8897 670.49 86.4986 675.307 94.7685C680.124 103.038 690.733 105.838 699.002 101.021Z" fill="white"/>
<path d="M635.582 60.8119C638.972 60.8119 641.721 58.0634 641.721 54.6729C641.721 51.2825 638.972 48.5339 635.582 48.5339C632.191 48.5339 629.443 51.2825 629.443 54.6729C629.443 58.0634 632.191 60.8119 635.582 60.8119Z" fill="white"/>
<path d="M701.107 299.317C704.497 299.317 707.246 296.569 707.246 293.178C707.246 289.788 704.497 287.039 701.107 287.039C697.717 287.039 694.968 289.788 694.968 293.178C694.968 296.569 697.717 299.317 701.107 299.317Z" fill="white"/>
<path d="M563.678 277.851C567.068 277.851 569.817 275.102 569.817 271.712C569.817 268.322 567.068 265.573 563.678 265.573C560.288 265.573 557.539 268.322 557.539 271.712C557.539 275.102 560.288 277.851 563.678 277.851Z" fill="white"/>
<path d="M647.101 277.878C647.101 281.059 644.522 283.638 641.341 283.638C638.16 283.638 635.581 281.059 635.581 277.878C635.581 274.697 638.16 272.118 641.341 272.118C644.522 272.119 647.101 274.697 647.101 277.878Z" fill="white"/>
<path d="M150.471 156.205C150.471 126.136 125.517 101.896 95.189 103.063C67.587 104.125 45.137 126.636 44.141 154.24C43.779 164.291 46.21 173.744 50.716 181.89C51.975 184.166 55.443 183.273 55.443 180.672C55.443 176.766 58.61 173.599 62.516 173.599C66.423 173.599 69.589 176.766 69.589 180.672V201.61V203.29V230.668C69.589 234.085 72.222 237.064 75.637 237.167C79.171 237.273 82.069 234.44 82.069 230.93V224.919C82.069 222.636 83.738 220.598 86.01 220.381C88.617 220.132 90.81 222.176 90.81 224.731V256.814C90.81 260.201 93.42 263.155 96.806 263.257C100.309 263.362 103.182 260.553 103.182 257.074V216.289C103.182 213.479 105.236 210.971 108.033 210.704C111.241 210.398 113.941 212.913 113.941 216.058V244.068C113.941 246.971 116.035 249.554 118.917 249.903C122.399 250.325 125.349 247.6 125.317 244.204L124.906 201.664C140.234 192.33 150.471 175.463 150.471 156.205Z" fill="white"/>
<path d="M198.606 68.727C201.996 68.727 204.745 65.9785 204.745 62.588C204.745 59.1975 201.996 56.449 198.606 56.449C195.216 56.449 192.467 59.1975 192.467 62.588C192.467 65.9785 195.216 68.727 198.606 68.727Z" fill="white"/>
<path d="M50.264 331.885C53.6545 331.885 56.403 329.136 56.403 325.746C56.403 322.355 53.6545 319.607 50.264 319.607C46.8735 319.607 44.125 322.355 44.125 325.746C44.125 329.136 46.8735 331.885 50.264 331.885Z" fill="white"/>
<path d="M144.234 92.0921C147.579 86.6802 145.903 79.5818 140.491 76.2374C135.079 72.893 127.98 74.5691 124.636 79.9811C121.291 85.393 122.968 92.4914 128.379 95.8358C133.791 99.1802 140.89 97.5041 144.234 92.0921Z" fill="white"/>
<path d="M87.726 84.556C99.8586 84.556 109.694 74.7206 109.694 62.588C109.694 50.4554 99.8586 40.62 87.726 40.62C75.5934 40.62 65.758 50.4554 65.758 62.588C65.758 74.7206 75.5934 84.556 87.726 84.556Z" fill="white"/>
<path opacity="0.4" d="M628.188 429.67C628.188 433.364 564.932 454.847 532.589 459.265C507.027 462.757 470.251 454.558 470.251 450.864C470.251 447.17 491.166 444.175 516.965 444.175C542.764 444.175 628.188 425.975 628.188 429.67Z" fill="black"/>
<path opacity="0.4" d="M659.303 447.793C682.391 447.793 701.108 445.753 701.108 443.237C701.108 440.721 682.391 438.681 659.303 438.681C636.215 438.681 617.498 440.721 617.498 443.237C617.498 445.753 636.215 447.793 659.303 447.793Z" fill="black"/>
<path d="M584.548 423.762C584.548 426.279 565.832 428.318 542.743 428.318C519.655 428.318 500.938 426.278 500.938 423.762C500.938 421.246 519.655 419.206 542.743 419.206C565.831 419.206 584.548 421.246 584.548 423.762Z" fill="#C5BAC6"/>
<path d="M681.074 423.762C681.074 426.279 662.357 428.318 639.269 428.318C616.181 428.318 597.464 426.278 597.464 423.762C597.464 421.246 616.181 419.206 639.269 419.206C662.357 419.206 681.074 421.246 681.074 423.762Z" fill="#C5BAC6"/>
<path opacity="0.4" d="M273.303 439.225C273.303 442.24 216.293 444.685 145.968 444.685C75.643 444.685 18.633 442.241 18.633 439.225C18.633 436.21 75.643 433.765 145.968 433.765C216.293 433.765 273.303 436.21 273.303 439.225Z" fill="black"/>
<path opacity="0.4" d="M273.303 454.102C304.176 454.102 329.204 450.618 329.204 446.32C329.204 442.022 304.176 438.538 273.303 438.538C242.43 438.538 217.402 442.022 217.402 446.32C217.402 450.618 242.43 454.102 273.303 454.102Z" fill="black"/>
<path opacity="0.4" d="M404.083 450.864C457.248 450.864 500.347 447.322 500.347 442.953C500.347 438.584 457.248 435.042 404.083 435.042C350.918 435.042 307.819 438.584 307.819 442.953C307.819 447.322 350.918 450.864 404.083 450.864Z" fill="black"/>
<path d="M185.149 315.889C193.862 360.464 202.525 404.942 209.191 439.225H221.503C215.138 406.487 203.581 347.112 192.137 288.644L185.149 315.889Z" fill="#6C74C3"/>
<path d="M286.086 439.225H298.398C284.168 366.022 238.009 128.908 235.424 119.946L235.411 119.95L228.637 146.36C240.281 204.106 269.766 355.279 286.086 439.225Z" fill="#6C74C3"/>
<path d="M186.735 261.066C175.464 203.599 165.148 151.408 161.09 132.033H154.401L151.07 143.212C156.512 169.934 167.79 227.198 179.751 288.292L186.735 261.066Z" fill="#6C74C3"/>
<path d="M109.693 271.712C110.507 271.52 193.583 276.756 193.583 276.756L259.205 257.325V253.253L110.158 266.982L109.693 271.712Z" fill="#5862AF"/>
<path d="M172.245 250L259.205 253.253L194.049 271.712L104.999 267.804L172.245 250Z" fill="#3C328C"/>
<path d="M83.263 364.017C84.302 363.825 168.605 372.109 168.605 372.109L272.565 351.268V347.196L83.857 359.288L83.263 364.017Z" fill="#5862AF"/>
<path d="M190.469 343.122L272.566 347.196L169.2 367.065L77.277 360.109L190.469 343.122Z" fill="#3C328C"/>
<path d="M177.087 315.141H139.57V352.93C143.395 358.394 170.712 358.576 177.086 352.93V315.141H177.087Z" fill="#956A69"/>
<path d="M139.57 315.141C139.57 317.002 147.968 318.51 158.328 318.51C168.688 318.51 177.086 317.002 177.086 315.141C177.086 313.28 168.688 311.772 158.328 311.772C147.969 311.772 139.57 313.28 139.57 315.141Z" fill="#65343B"/>
<path d="M174.557 316.826C171.312 315.82 165.268 315.141 158.329 315.141C151.39 315.141 145.345 315.82 142.101 316.826C145.346 317.832 151.39 318.511 158.329 318.511C165.268 318.51 171.312 317.832 174.557 316.826Z" fill="#0F041F"/>
<path d="M182.611 342.123C189.844 350.308 197.005 355.797 198.606 354.382L196.828 355.954C195.227 357.369 188.066 351.88 180.833 343.695C173.6 335.51 169.034 327.728 170.634 326.313L172.412 324.741C170.812 326.156 175.378 333.938 182.611 342.123Z" fill="#65343B"/>
<path d="M182.611 342.123C175.378 333.938 170.812 326.156 172.412 324.741C174.012 323.326 181.174 328.815 188.407 337C195.64 345.185 200.206 352.967 198.606 354.381C197.005 355.797 189.844 350.308 182.611 342.123Z" fill="#AF8282"/>
<path d="M165.9 318.224V332.105C165.9 333.597 164.69 334.807 163.199 334.807C161.707 334.807 160.497 333.597 160.497 332.105V329.421C160.497 328.376 159.65 327.529 158.605 327.529C157.56 327.529 156.713 328.376 156.713 329.421V343.423C156.713 344.902 155.514 346.101 154.035 346.101C152.556 346.101 151.357 344.902 151.357 343.423V325.666C151.357 324.38 150.314 323.337 149.028 323.337C147.742 323.337 146.699 324.38 146.699 325.666V337.875C146.699 339.235 145.596 340.337 144.237 340.337C142.868 340.337 141.761 339.22 141.775 337.851L141.978 316.792C145.194 317.818 151.31 318.511 158.33 318.511C161.023 318.51 163.583 318.407 165.9 318.224Z" fill="#291942"/>
<path d="M163.201 342.003C164.454 342.003 165.469 340.988 165.469 339.735C165.469 338.482 164.454 337.467 163.201 337.467C161.948 337.467 160.933 338.482 160.933 339.735C160.933 340.988 161.948 342.003 163.201 342.003Z" fill="#291942"/>
<path d="M143.191 347.15C143.191 348.403 144.207 349.418 145.459 349.418C146.711 349.418 147.727 348.402 147.727 347.15C147.727 345.897 146.711 344.882 145.459 344.882C144.207 344.882 143.191 345.897 143.191 347.15Z" fill="#291942"/>
<path d="M235.411 119.95L243.121 157.154L224.939 160.775L235.411 119.95Z" fill="#555FA3"/>
<path opacity="0.44" d="M147.777 152.724L153.963 128.083H221.43L213.96 152.007L147.777 152.724Z" fill="#555FA3"/>
<path d="M171.286 213.346C162.226 213.346 154.882 214.665 154.882 216.292C154.882 217.919 162.226 219.238 171.286 219.238C180.346 219.238 187.69 217.919 187.69 216.292C187.69 214.665 180.346 213.346 171.286 213.346Z" fill="#0F041F"/>
<path d="M152.693 197.941L148.691 173.121L165.708 166.607L170.426 195.864L152.693 197.941Z" fill="#C56F6C"/>
<path opacity="0.41" d="M166.237 189.822L162.681 167.766L161.634 168.167L165.153 189.997L166.237 189.822Z" fill="#65343B"/>
<path d="M169.276 188.647L151.665 191.487L152.707 197.946L170.317 195.106L169.276 188.647Z" fill="#838BDD"/>
<path d="M161.498 196.521L152.693 197.941L152.816 198.703C152.961 199.604 153.528 200.382 154.338 200.803C159.053 203.25 159.904 207.59 159.904 207.59L165.39 241.614C165.531 242.49 166.015 243.274 166.734 243.793L167.258 244.172C168.46 245.04 170.138 244.77 171.007 243.568L171.386 243.044C171.906 242.325 172.118 241.429 171.977 240.553L166.491 206.528C166.491 206.528 165.935 202.14 169.642 198.335C170.279 197.681 170.572 196.765 170.427 195.863L170.304 195.101L161.498 196.521ZM168.763 241.585C168.093 241.693 167.462 241.238 167.354 240.567C167.246 239.897 167.702 239.266 168.372 239.158C169.042 239.05 169.673 239.506 169.781 240.176C169.889 240.846 169.434 241.477 168.763 241.585Z" fill="#65343B"/>
<path opacity="0.41" d="M155.977 191.477L152.766 171.561L151.719 171.962L154.894 191.651L155.977 191.477Z" fill="#65343B"/>
<path opacity="0.41" d="M161.107 190.65L157.723 169.663L156.676 170.064L160.023 190.824L161.107 190.65Z" fill="#65343B"/>
<path d="M169.276 188.646L151.665 191.486L151.987 193.479L169.597 190.64L169.276 188.646Z" fill="#6C74C3"/>
<path d="M169.957 192.873L152.347 195.713L152.508 196.71L170.118 193.87L169.957 192.873Z" fill="#6C74C3"/>
<path d="M192.331 194.032L195.607 174.238L177.887 171.561L174.598 191.955L192.331 194.032Z" fill="#F0AF46"/>
<path d="M174.717 191.179L192.327 194.018L193.369 187.559L175.758 184.72L174.717 191.179Z" fill="#838BDD"/>
<path d="M174.721 191.193L174.598 191.956C174.453 192.857 174.746 193.774 175.383 194.428C179.09 198.233 178.534 202.62 178.534 202.62L173.048 236.645C172.907 237.521 173.119 238.417 173.639 239.136L174.018 239.66C174.886 240.862 176.564 241.133 177.766 240.264L178.29 239.885C179.009 239.365 179.493 238.581 179.634 237.705L185.12 203.681C185.12 203.681 185.971 199.341 190.686 196.894C191.496 196.473 192.063 195.695 192.208 194.794L192.331 194.032L183.526 192.612L174.721 191.193ZM175.243 236.267C175.351 235.597 175.982 235.141 176.652 235.249C177.322 235.357 177.778 235.988 177.67 236.658C177.562 237.328 176.931 237.784 176.261 237.676C175.591 237.568 175.135 236.937 175.243 236.267Z" fill="#3C328C"/>
<path d="M175.437 186.713L193.047 189.553L193.369 187.56L175.758 184.72L175.437 186.713Z" fill="#291942"/>
<path d="M174.916 189.943L192.527 192.783L192.687 191.785L175.077 188.946L174.916 189.943Z" fill="#291942"/>
<path opacity="0.41" d="M179.983 185.414L182.179 172.209L181.093 172.045L178.899 185.24L179.983 185.414Z" fill="#65343B"/>
<path opacity="0.41" d="M190.243 187.069L192.465 173.764L191.379 173.599L189.159 186.894L190.243 187.069Z" fill="#65343B"/>
<path opacity="0.41" d="M185.113 186.242L187.322 172.986L186.236 172.822L184.03 186.067L185.113 186.242Z" fill="#65343B"/>
<path d="M187.69 216.292C187.69 217.919 180.346 219.238 171.286 219.238C162.226 219.238 154.882 217.919 154.882 216.292V261.685C158.226 266.463 182.116 266.622 187.691 261.685L187.69 216.292Z" fill="#E35756"/>
<path d="M145.527 161.819L212.366 161.147L186.735 261.066L179.751 288.292L141.034 439.225H153.511L185.149 315.889L192.138 288.644L228.637 146.359L235.411 119.95L235.412 119.946H145.39L50.264 439.225H62.875L145.527 161.819Z" fill="#838BDD"/>
<path d="M221.504 235.086C215.473 235.086 210.583 234.208 210.583 233.124V255.125C214.294 258.412 230.198 258.306 232.425 255.125V233.124C232.425 234.208 227.535 235.086 221.504 235.086Z" fill="#F0AF46"/>
<path d="M221.504 235.087C227.536 235.087 232.425 234.209 232.425 233.125C232.425 232.042 227.536 231.163 221.504 231.163C215.473 231.163 210.583 232.042 210.583 233.125C210.583 234.209 215.473 235.087 221.504 235.087Z" fill="#3C328C"/>
<path d="M148.27 315.179L155.458 296.448L138.637 290.264L131.317 309.581L148.27 315.179Z" fill="#291942"/>
<path d="M131.58 308.871L148.259 315.19L150.577 309.073L133.898 302.753L131.58 308.871Z" fill="#65343B"/>
<path d="M131.591 308.859L131.317 309.581C130.994 310.435 131.096 311.391 131.589 312.16C134.456 316.632 133.029 320.819 133.029 320.819L120.817 353.047C120.503 353.877 120.531 354.797 120.895 355.606L121.161 356.196C121.77 357.548 123.36 358.15 124.712 357.541L125.302 357.275C126.111 356.911 126.742 356.24 127.057 355.41L139.269 323.182C139.269 323.182 140.975 319.101 146.085 317.652C146.963 317.403 147.674 316.755 147.998 315.901L148.272 315.179L139.932 312.019L131.591 308.859ZM123.042 353.119C123.282 352.484 123.992 352.165 124.627 352.405C125.262 352.645 125.581 353.355 125.341 353.99C125.1 354.625 124.391 354.944 123.756 354.704C123.122 354.463 122.802 353.753 123.042 353.119Z" fill="#E35756"/>
<path d="M133.183 304.641L149.862 310.961L150.577 309.073L133.898 302.753L133.183 304.641Z" fill="#291942"/>
<path d="M132.024 307.7L148.703 314.02L149.061 313.075L132.382 306.755L132.024 307.7Z" fill="#291942"/>
<path d="M137.906 304.256L142.711 291.762L141.68 291.383L136.88 303.867L137.906 304.256Z" fill="#838BDD"/>
<path d="M147.624 307.939L152.476 295.352L151.444 294.973L146.598 307.55L147.624 307.939Z" fill="#838BDD"/>
<path d="M142.765 306.097L147.593 293.557L146.562 293.178L141.739 305.708L142.765 306.097Z" fill="#838BDD"/>
<path d="M231.958 328.946C234.003 329.009 277.56 321.444 318.066 329.361C318.066 329.361 280.872 343.122 280.223 343.122C279.574 343.122 231.958 328.946 231.958 328.946Z" fill="#838BDD"/>
<path d="M308.444 445.458C285.447 452.471 263.038 452.563 241.233 445.542C237.486 444.335 234.988 440.786 234.988 436.849V338.839H314.852V436.71C314.852 440.71 312.27 444.292 308.444 445.458Z" fill="white"/>
<path d="M316.79 350.309C289.233 354.087 261.104 353.928 232.466 350.266C229.696 349.912 227.629 347.529 227.629 344.736V334.512C227.629 331.116 230.645 328.501 234.003 329.008C261.168 333.114 288.227 333.153 315.177 329.026C318.538 328.511 321.561 331.127 321.561 334.527V344.792C321.561 347.561 319.533 349.933 316.79 350.309Z" fill="white"/>
<path d="M260.704 331.731V353.546C260.704 353.546 265.999 353.896 270.062 353.976V375.497C270.062 377.75 271.888 379.576 274.141 379.576C276.394 379.576 278.22 377.75 278.22 375.497V371.445C278.22 369.867 279.499 368.588 281.077 368.588C282.655 368.588 283.934 369.867 283.934 371.445V392.585C283.934 394.818 285.744 396.628 287.977 396.628C290.21 396.628 292.02 394.818 292.02 392.585V365.776C292.02 363.834 293.594 362.26 295.536 362.26C297.478 362.26 299.052 363.834 299.052 365.776V384.209C299.052 386.262 300.716 387.927 302.77 387.927C304.837 387.927 306.507 386.24 306.487 384.173L306.176 352.007L310.918 351.097C310.918 351.097 311.113 340.653 310.181 329.746C310.181 329.746 299.074 332.164 260.704 331.731Z" fill="#E35756"/>
<path opacity="0.24" d="M234.988 350.579C234.988 350.579 275.618 358.306 313.155 350.782C313.155 350.782 242.1 369.51 234.988 402.011V350.579Z" fill="#838BDD"/>
<path d="M303.801 338.439C304.951 338.286 305.809 339.475 305.301 340.518L288.803 374.401C288.253 375.551 287.072 376.263 285.798 376.215L224.533 373.87C222.286 373.784 220.828 371.465 221.724 369.403L230.358 349.536L234.987 350.58L228.699 364.654C227.779 366.713 229.224 369.052 231.477 369.15L281.864 371.355C283.122 371.41 284.295 370.721 284.86 369.596L299.394 341.536C300.27 339.845 301.915 338.69 303.801 338.439Z" fill="#838BDD"/>
<path d="M307.279 341.057C307.279 343.351 305.42 345.21 303.126 345.21C300.832 345.21 298.973 343.351 298.973 341.057C298.973 338.763 300.833 336.904 303.126 336.904C305.42 336.904 307.279 338.763 307.279 341.057Z" fill="white"/>
<path d="M485.895 109.018L462.976 167.028C461.841 169.901 463.163 173.18 465.938 174.377C468.608 175.528 471.686 174.341 472.967 171.665L475.312 166.77C475.959 165.42 477.557 164.886 478.848 165.588C480.03 166.231 480.545 167.695 480.038 168.97L471.629 190.101C470.477 192.995 471.962 196.288 474.85 197.245C477.427 198.099 480.208 196.773 481.246 194.196L490.523 171.172C491.191 169.513 493.027 168.714 494.646 169.376C496.322 170.061 497.115 172.041 496.396 173.747L491.968 184.252C491.063 186.343 492.076 188.786 494.168 189.554C496.095 190.262 498.219 189.274 498.981 187.317L507.234 167.448C507.949 165.725 509.9 164.949 511.553 165.729C513.164 166.49 513.881 168.446 513.161 170.116L502.249 195.407C501.157 198.022 502.3 201.057 504.817 202.227C507.489 203.469 510.621 202.118 511.641 199.285L541.333 116.756L488.261 109.503L485.895 109.018Z" fill="#E35756"/>
<path d="M420.153 417.058V438.672L485.848 438.681L482.959 429.953C481.677 426.08 478.399 423.205 474.392 422.438L457.087 419.127L441.465 402.884L420.153 417.058Z" fill="#0F041F"/>
<path d="M374.322 310.291C374.943 311.119 392.116 345.673 392.116 345.673L391.782 358.236C391.662 362.742 392.771 367.196 394.989 371.12L414.876 406.298C414.876 406.298 413.117 411.678 413.428 411.988C413.738 412.298 418.394 419.747 418.808 419.54C419.222 419.333 448.5 408.056 448.5 408.056L445.914 398.435L440.431 395.021L390.461 249.561L374.322 310.291Z" fill="#241C75"/>
<path d="M323.779 412.709L322.148 446.612H385.205L384.518 439.792C384.113 435.771 381.536 432.296 377.806 430.741L352.461 422.609L352.664 412.312L323.779 412.709Z" fill="#0F041F"/>
<path d="M454.747 192.186L468.452 188.175L480.313 176.567C481.001 175.955 482.087 176.411 482.132 177.331C482.225 179.233 481.629 182.529 478.161 187.291L480.967 187.243C482.959 187.209 484.81 188.555 485.143 190.519C485.354 191.761 485.003 193.186 483.248 194.484C483.248 194.484 486.406 197.817 483.248 200.975C483.248 200.975 485.265 203.343 481.757 206.589L454.747 214.139V192.186Z" fill="#C86945"/>
<path d="M420.791 329.873C419.553 329.36 418.965 327.941 419.478 326.703L493.75 147.538C494.263 146.3 495.682 145.713 496.92 146.226C498.158 146.739 498.745 148.158 498.232 149.396L423.96 328.561C423.448 329.798 422.029 330.386 420.791 329.873Z" fill="#B7C8D3"/>
<path d="M535.765 126.508L487.54 111.157C486.393 110.792 485.601 109.732 485.579 108.529C485.486 103.414 486.955 98.797 489.988 94.678C490.702 93.709 491.961 93.302 493.107 93.667L541.332 109.019C536.273 113.828 534.417 119.658 535.765 126.508Z" fill="white"/>
<path d="M498.01 106.706C507.945 105.193 509.538 106.442 513.454 109.018C517.37 111.593 517.835 111.709 521.326 111.244C524.817 110.779 527.696 112.415 527.536 116.309C527.376 120.203 529.748 122.44 535.639 116.83C535.917 116.565 536.208 116.287 536.498 116.008C537.482 113.478 539.092 111.148 541.332 109.018L493.107 93.666C491.96 93.301 490.701 93.708 489.988 94.677C488.041 97.321 486.747 100.173 486.088 103.227C487.546 105.025 491.004 107.773 498.01 106.706Z" fill="#E35756"/>
<path d="M483.905 167.018L491.121 170.144L504.804 138.32L509.899 136.701C510.697 136.447 511.298 135.785 511.474 134.967L512.064 132.213C512.315 131.042 511.639 129.872 510.5 129.504L508.28 128.787C502.99 127.078 497.298 129.87 495.412 135.1L483.905 167.018Z" fill="#3C328C"/>
<path d="M392.292 164.107C392.913 165.038 428.295 192.454 428.295 192.454L452.676 189.823C454.987 189.574 456.984 191.43 456.903 193.753L456.235 213.038C456.171 214.894 454.781 216.435 452.941 216.69L426.225 220.388L393.636 201.145L392.292 164.107Z" fill="#6C74C3"/>
<path d="M373.741 115.748C374.521 115.637 389.786 107.837 389.786 107.837C389.786 107.837 399.276 122.072 392.974 135.715C391.549 138.8 388.217 140.54 384.871 139.947L377.485 138.637C377.485 138.637 377.863 148.396 377.418 148.396C376.972 148.396 359.478 146.056 359.478 146.056L361.707 136.919L358.668 116.931L373.741 115.748Z" fill="#E3A382"/>
<path d="M345.633 222.663C346.105 223.328 342.128 240.21 339.914 249.407C338.984 253.27 338.974 257.29 339.883 261.158L346.667 290.013L343.563 336.879L332.675 353.641C330.384 357.168 329.026 361.22 328.729 365.415L325.561 410.126L321.526 411.988V419.954L355.356 421.196L356.184 413.023L351.839 408.885L393.635 246.872L394.67 229.388L345.633 222.663Z" fill="#3C328C"/>
<path d="M535.765 126.508C535.765 126.508 542.965 122.06 541.333 109.018C541.333 109.018 532.521 113.974 535.765 126.508Z" fill="#838BDD"/>
<path d="M519.532 136.272C518.417 136.305 517.296 136.191 516.195 135.931L510.038 134.474C509.386 134.32 508.983 133.666 509.137 133.014C509.291 132.362 509.945 131.959 510.597 132.113L516.754 133.57C518.691 134.027 520.707 133.925 522.586 133.268L538.932 127.567C539.479 127.376 539.955 127.021 540.293 126.55L543.197 122.509C543.54 122.031 543.631 121.438 543.445 120.88C543.26 120.321 542.832 119.899 542.272 119.721L538.963 118.671C538.404 118.494 538.095 117.897 538.272 117.338L538.364 117.049C538.541 116.49 539.138 116.181 539.697 116.358L542.852 117.359C544.007 117.726 545.023 118.507 545.542 119.602C546.227 121.047 546.076 122.66 545.168 123.924L542.264 127.965C541.634 128.842 540.75 129.503 539.73 129.858L523.385 135.559C522.136 135.995 520.837 136.234 519.532 136.272Z" fill="#BAC0F4"/>
<path d="M419.801 251.045L439.444 263.727C441.393 264.986 443.931 264.847 445.732 263.384L446.285 262.935C448.198 261.381 451.032 261.799 452.414 263.841C453.915 266.058 457.36 265.532 458.066 262.95C458.199 262.463 458.286 261.934 458.309 261.36C458.311 261.319 458.345 261.289 458.382 261.308C458.881 261.572 461.909 262.891 462.431 256.304C462.433 256.278 462.45 256.254 462.476 256.252C462.826 256.214 465.245 255.78 464.106 251.018C463.537 248.638 460.997 245.656 458.439 243.146C455.201 239.967 450.184 239.477 446.363 241.925L444.133 243.353C442.902 244.142 441.309 244.077 440.145 243.191L427.948 233.901C427.919 233.879 427.877 233.889 427.862 233.922L419.78 250.973C419.768 250.999 419.777 251.03 419.801 251.045Z" fill="#E3A382"/>
<path d="M350.805 150.864C351.084 150.773 353.469 147.337 355.173 144.84C356.17 143.379 358.006 142.751 359.684 143.312C363.472 144.578 370.844 146.561 379.954 146.602C381.388 146.608 382.706 147.405 383.386 148.668L385.463 152.52C385.463 152.52 391.976 156.348 395.134 165.245C397.889 173.008 404.856 202.901 406.588 210.398C406.846 211.513 407.459 212.51 408.338 213.244L428.077 229.748C430.128 231.463 430.681 234.388 429.398 236.734L422.822 248.754C421.205 251.71 417.362 252.58 414.63 250.607L386.809 230.526L346.283 223.579C344.438 223.263 342.845 222.107 341.973 220.451L339.322 215.422C339.322 215.422 330.839 209.525 331.046 208.594C331.252 207.662 333.972 156.347 350.805 150.864Z" fill="#838BDD"/>
<path d="M386.808 230.526L375.252 219.127L365.336 171.349C365.336 171.349 374.105 216.763 346.282 223.579L386.808 230.526Z" fill="#6C74C3"/>
<path d="M350.805 150.864C350.805 150.864 363.55 157.067 381.405 153.543C381.405 153.543 364.408 153.143 354.053 146.471L350.805 150.864Z" fill="#6C74C3"/>
<path d="M390.514 119.388C390.514 120.59 389.848 121.565 389.026 121.565C388.204 121.565 387.539 120.59 387.539 119.388C387.539 118.186 388.205 117.211 389.026 117.211C389.847 117.211 390.514 118.185 390.514 119.388Z" fill="#65343B"/>
<path d="M377.485 138.636L372.248 137.737L377.632 144.721L377.485 138.636Z" fill="#C86945"/>
<path d="M388.852 129.572C388.53 129.467 388.192 129.642 388.087 129.96C387.983 130.278 388.156 130.621 388.475 130.725C389.807 131.16 391.099 131.306 392.23 131.306C393.117 131.306 393.898 131.216 394.529 131.107C394.626 130.676 394.711 130.247 394.783 129.82C393.548 130.079 391.249 130.355 388.852 129.572Z" fill="#65343B"/>
<path d="M390.636 100.481C390.636 100.481 399.74 85.997 389.291 86.047C378.842 86.096 374.497 92.205 374.497 92.205C374.497 92.205 377.187 83.101 368.6 87.032C360.013 90.963 356.5 105.409 355.771 105.344C344.184 104.309 353.805 108.344 353.805 108.344C353.805 108.344 351.322 109.586 347.908 117.138C344.494 124.69 352.15 122.311 352.15 122.311C353.909 134.519 360.716 140.979 360.716 140.979L371.557 133.852C360.919 133.799 361.549 124.444 367.845 123.725C370.993 123.365 373.13 123.703 374.479 124.13C375.489 124.45 376.546 123.814 376.675 122.763L377.446 116.504C382.451 115.175 390.609 112.325 394.311 107.207C399.849 99.55 390.636 100.481 390.636 100.481Z" fill="#65343B"/>
<path d="M414.877 406.298L440.431 395.022L407.966 394.075L414.877 406.298Z" fill="#0F041F"/>
<path d="M325.562 410.126C327.023 410.201 351.84 408.885 351.84 408.885L326.608 395.36L325.562 410.126Z" fill="#241C75"/>
<path d="M513.285 343.845C514.687 343.888 544.554 338.701 572.329 344.13C572.329 344.13 546.825 353.566 546.38 353.566C545.935 353.566 513.285 343.845 513.285 343.845Z" fill="#838BDD"/>
<path d="M565.73 423.737C549.961 428.546 534.595 428.609 519.644 423.795C517.074 422.968 515.362 420.534 515.362 417.834V350.629H570.124V417.738C570.125 420.481 568.354 422.937 565.73 423.737Z" fill="white"/>
<path d="M571.454 358.494C552.559 361.084 533.271 360.976 513.633 358.464C511.734 358.221 510.316 356.587 510.316 354.672V347.662C510.316 345.333 512.384 343.54 514.687 343.888C533.314 346.704 551.868 346.73 570.348 343.901C572.653 343.548 574.726 345.342 574.726 347.673V354.711C574.725 356.61 573.334 358.236 571.454 358.494Z" fill="white"/>
<path d="M532.995 345.755V360.713C532.995 360.713 536.626 360.953 539.412 361.008V375.765C539.412 377.31 540.664 378.562 542.209 378.562C543.754 378.562 545.006 377.31 545.006 375.765V372.987C545.006 371.905 545.883 371.028 546.965 371.028C548.047 371.028 548.924 371.905 548.924 372.987V387.482C548.924 389.013 550.165 390.254 551.697 390.254C553.228 390.254 554.47 389.013 554.47 387.482V369.099C554.47 367.767 555.549 366.688 556.881 366.688C558.212 366.688 559.292 367.767 559.292 369.099V381.738C559.292 383.146 560.433 384.287 561.841 384.287C563.258 384.287 564.404 383.131 564.39 381.713L564.177 359.657L567.429 359.033C567.429 359.033 567.563 351.872 566.923 344.392C566.921 344.393 559.306 346.052 532.995 345.755Z" fill="#CBD177"/>
<path opacity="0.24" d="M515.362 358.679C515.362 358.679 543.222 363.977 568.961 358.818C568.961 358.818 520.239 371.659 515.362 393.946V358.679Z" fill="#838BDD"/>
<path d="M562.547 350.354C563.336 350.249 563.924 351.064 563.576 351.78L552.263 375.013C551.886 375.801 551.076 376.29 550.203 376.257L508.194 374.649C506.653 374.59 505.653 373 506.268 371.586L512.189 357.964L515.363 358.68L511.051 368.331C510.42 369.743 511.411 371.346 512.956 371.414L547.506 372.926C548.369 372.964 549.173 372.491 549.56 371.72L559.526 352.479C560.126 351.319 561.254 350.526 562.547 350.354Z" fill="#838BDD"/>
<path d="M564.932 352.15C564.932 353.723 563.657 354.998 562.084 354.998C560.511 354.998 559.236 353.723 559.236 352.15C559.236 350.577 560.511 349.302 562.084 349.302C563.657 349.302 564.932 350.577 564.932 352.15Z" fill="white"/>
<path d="M585.935 310.594C587.797 310.652 627.456 303.764 664.337 310.972C664.337 310.972 630.472 323.501 629.88 323.501C629.288 323.501 585.935 310.594 585.935 310.594Z" fill="#838BDD"/>
<path d="M655.576 416.68C634.637 423.065 614.233 423.149 594.38 416.757C590.968 415.658 588.694 412.427 588.694 408.842V319.603H661.411V408.715C661.411 412.356 659.06 415.617 655.576 416.68Z" fill="white"/>
<path d="M663.176 330.046C638.085 333.486 612.474 333.342 586.398 330.007C583.876 329.684 581.994 327.515 581.994 324.972V315.663C581.994 312.571 584.74 310.19 587.797 310.652C612.531 314.391 637.169 314.426 661.707 310.669C664.767 310.2 667.52 312.582 667.52 315.678V325.024C667.52 327.544 665.673 329.703 663.176 330.046Z" fill="white"/>
<path d="M612.109 313.13V332.993C612.109 332.993 616.93 333.312 620.63 333.385V354.034C620.63 356.085 622.293 357.748 624.344 357.748C626.395 357.748 628.058 356.085 628.058 354.034V350.345C628.058 348.908 629.223 347.744 630.659 347.744C632.095 347.744 633.26 348.909 633.26 350.345V384.186C633.26 386.219 634.908 387.868 636.942 387.868C638.975 387.868 640.624 386.22 640.624 384.186V359.776C640.624 358.008 642.057 356.575 643.825 356.575C645.593 356.575 647.026 358.008 647.026 359.776V376.559C647.026 378.429 648.542 379.944 650.411 379.944C652.293 379.944 653.814 378.409 653.796 376.526L653.513 331.592L657.831 330.763C657.831 330.763 658.009 321.254 657.16 311.322C657.158 311.321 647.046 313.524 612.109 313.13Z" fill="#F0AF46"/>
<path opacity="0.24" d="M588.694 330.291C588.694 330.291 625.688 337.326 659.866 330.476C659.866 330.476 595.17 347.528 588.694 377.121V330.291Z" fill="#838BDD"/>
<path d="M597.861 316.989C596.814 316.85 596.032 317.932 596.495 318.882L611.516 349.733C612.017 350.78 613.092 351.429 614.252 351.384L670.034 349.249C672.08 349.171 673.408 347.059 672.591 345.181L665.22 329.347L661.41 330.045L666.24 340.856C667.078 342.731 665.762 344.86 663.711 344.95L617.833 346.958C616.688 347.008 615.619 346.381 615.105 345.356L601.872 319.807C601.076 318.27 599.578 317.217 597.861 316.989Z" fill="#838BDD"/>
<path d="M594.694 319.373C594.694 321.462 596.387 323.155 598.476 323.155C600.565 323.155 602.258 321.462 602.258 319.373C602.258 317.284 600.565 315.591 598.476 315.591C596.387 315.591 594.694 317.284 594.694 319.373Z" fill="#BBC3FF"/>
<path d="M641.341 396.139C641.341 398.231 639.645 399.927 637.553 399.927C635.461 399.927 633.765 398.231 633.765 396.139C633.765 394.047 635.461 392.351 637.553 392.351C639.645 392.351 641.341 394.047 641.341 396.139Z" fill="#F0AF46"/>
<path d="M500.481 437.62C504.765 436.536 587.651 415.213 587.651 415.213C587.651 415.213 616.817 424.85 616.488 425.212C616.158 425.573 528.46 450.158 528 449.907C527.54 449.658 500.481 437.62 500.481 437.62Z" fill="#E35756"/>
<path d="M581.06 408.709C580.895 409.07 581.225 418.828 581.225 418.828L628.188 429.67V417.985L581.06 408.709Z" fill="#241C75"/>
<path d="M581.06 408.709L484.168 432.44V444.728L581.225 418.828L581.06 408.709Z" fill="#241C75"/>
<path d="M484.168 432.44L526.892 442.352L528 454.847L484.168 444.728V432.44Z" fill="#8691E2"/>
<path d="M526.892 442.352L628.188 417.984V429.67L528 454.847L526.892 442.352Z" fill="#6C74C3"/>
<path d="M644.407 391.809H693.15V440.907C688.181 448.005 652.689 448.242 644.407 440.907V391.809Z" fill="#6C74C3"/>
<path d="M668.778 396.186C682.238 396.186 693.149 394.226 693.149 391.809C693.149 389.392 682.238 387.432 668.778 387.432C655.318 387.432 644.407 389.392 644.407 391.809C644.407 394.226 655.318 396.186 668.778 396.186Z" fill="#241C75"/>
<path d="M641.964 419.794C636.631 432.945 630.222 442.761 627.65 441.718L630.507 442.877C633.079 443.92 639.487 434.104 644.821 420.953C650.155 407.802 652.393 396.295 649.822 395.252L646.964 394.093C649.536 395.136 647.297 406.643 641.964 419.794Z" fill="#241C75"/>
<path d="M641.964 419.794C647.297 406.643 649.536 395.136 646.964 394.093C644.392 393.05 637.984 402.866 632.65 416.017C627.317 429.168 625.078 440.675 627.65 441.718C630.222 442.761 636.63 432.945 641.964 419.794Z" fill="#8691E2"/>
<path d="M658.942 395.814V413.849C658.942 415.788 660.513 417.359 662.452 417.359C664.39 417.359 665.962 415.787 665.962 413.849V410.362C665.962 409.004 667.063 407.904 668.42 407.904C669.778 407.904 670.878 409.005 670.878 410.362V428.554C670.878 430.476 672.436 432.034 674.358 432.034C676.28 432.034 677.838 430.476 677.838 428.554V405.483C677.838 403.812 679.193 402.457 680.864 402.457C682.535 402.457 683.89 403.812 683.89 405.483V421.346C683.89 423.113 685.322 424.545 687.089 424.545C688.868 424.545 690.305 423.094 690.288 421.315L690.024 393.954C685.846 395.287 677.9 396.187 668.779 396.187C665.277 396.187 661.951 396.053 658.942 395.814Z" fill="#0F041F"/>
<path d="M665.395 423.762C665.395 425.39 664.076 426.709 662.448 426.709C660.82 426.709 659.501 425.39 659.501 423.762C659.501 422.134 660.82 420.815 662.448 420.815C664.075 420.815 665.395 422.135 665.395 423.762Z" fill="#0F041F"/>
</svg>
