<svg width="288" height="334" viewBox="0 0 288 334" fill="none" xmlns="http://www.w3.org/2000/svg">
<path fill-rule="evenodd" clip-rule="evenodd" d="M246.857 0H41.1428C18.4216 0 0 18.3958 0 41.0847V333.936H19.1931L61.7144 303.123L102.857 333.936L144 303.123L185.143 333.936L226.286 303.123L268.797 333.936H288V41.0847C288 18.3958 269.578 0 246.857 0ZM53 175C53 180.523 57.4771 185 63 185H76C81.5229 185 86 180.523 86 175C86 169.477 81.5229 165 76 165H63C57.4771 165 53 169.477 53 175ZM63 137C57.4771 137 53 132.523 53 127C53 121.477 57.4771 117 63 117H76C81.5229 117 86 121.477 86 127C86 132.523 81.5229 137 76 137H63ZM53 79C53 84.5229 57.4771 89 63 89H76C81.5229 89 86 84.5229 86 79C86 73.4771 81.5229 69 76 69H63C57.4771 69 53 73.4771 53 79ZM113 185C107.477 185 103 180.523 103 175C103 169.477 107.477 165 113 165H222C227.523 165 232 169.477 232 175C232 180.523 227.523 185 222 185H113ZM103 127C103 132.523 107.477 137 113 137H222C227.523 137 232 132.523 232 127C232 121.477 227.523 117 222 117H113C107.477 117 103 121.477 103 127ZM113 89C107.477 89 103 84.5229 103 79C103 73.4771 107.477 69 113 69H222C227.523 69 232 73.4771 232 79C232 84.5229 227.523 89 222 89H113Z" fill="#254FBB"/>
</svg>
