<svg width="294" height="341" viewBox="0 0 294 341" fill="none" xmlns="http://www.w3.org/2000/svg">
<path d="M235 66H56V86H235V66Z" fill="#254FBB"/>
<path d="M235 194H56V214H235V194Z" fill="#254FBB"/>
<path d="M235 131H56V151H235V131Z" fill="#254FBB"/>
<mask id="path-4-outside-1_534_2887" maskUnits="userSpaceOnUse" x="0" y="0" width="294" height="341" fill="#254FBB">
<rect fill="white" width="294" height="341"/>
<path fill-rule="evenodd" clip-rule="evenodd" d="M23.5714 316.671L64.7143 285.58L105.857 318.325L147 285.58L188.143 318.325L229.286 285.58L270.429 317V44.0847C270.429 32.7453 261.213 23.5424 249.857 23.5424H44.1429C32.7874 23.5424 23.5714 32.7453 23.5714 44.0847V316.671ZM44.1429 3H249.857C272.578 3 291 21.3957 291 44.0847V336.936H271.797L229.286 306.123L188.143 336.936L147 306.123L105.857 336.936L64.7143 306.123L22.1931 336.936H3V44.0847C3 21.3957 21.4217 3 44.1429 3Z"/>
</mask>
<path fill-rule="evenodd" clip-rule="evenodd" d="M23.5714 316.671L64.7143 285.58L105.857 318.325L147 285.58L188.143 318.325L229.286 285.58L270.429 317V44.0847C270.429 32.7453 261.213 23.5424 249.857 23.5424H44.1429C32.7874 23.5424 23.5714 32.7453 23.5714 44.0847V316.671ZM44.1429 3H249.857C272.578 3 291 21.3957 291 44.0847V336.936H271.797L229.286 306.123L188.143 336.936L147 306.123L105.857 336.936L64.7143 306.123L22.1931 336.936H3V44.0847C3 21.3957 21.4217 3 44.1429 3Z" fill="#254FBB"/>
<path d="M23.5714 316.671H20.5714V322.698L25.3801 319.064L23.5714 316.671ZM64.7143 285.58L66.5824 283.233L64.7619 281.784L62.9056 283.187L64.7143 285.58ZM105.857 318.325L103.989 320.672L105.857 322.159L107.725 320.672L105.857 318.325ZM147 285.58L148.868 283.233L147 281.746L145.132 283.233L147 285.58ZM188.143 318.325L186.275 320.672L188.143 322.159L190.011 320.672L188.143 318.325ZM229.286 285.58L231.107 283.196L229.248 281.776L227.418 283.233L229.286 285.58ZM270.429 317L268.608 319.384L273.429 323.066V317H270.429ZM291 336.936V339.936H294V336.936H291ZM271.797 336.936L270.036 339.365L270.824 339.936H271.797V336.936ZM229.286 306.123L231.046 303.694L229.257 302.396L227.487 303.721L229.286 306.123ZM188.143 336.936L186.344 339.337L188.143 340.684L189.941 339.337L188.143 336.936ZM147 306.123L148.798 303.721L147 302.375L145.202 303.721L147 306.123ZM105.857 336.936L104.059 339.337L105.857 340.684L107.656 339.337L105.857 336.936ZM64.7143 306.123L66.5126 303.721L64.7436 302.396L62.9539 303.693L64.7143 306.123ZM22.1931 336.936V339.936H23.1658L23.9535 339.365L22.1931 336.936ZM3 336.936H0V339.936H3V336.936ZM25.3801 319.064L66.523 287.974L62.9056 283.187L21.7628 314.277L25.3801 319.064ZM62.8461 287.928L103.989 320.672L107.725 315.977L66.5824 283.233L62.8461 287.928ZM107.725 320.672L148.868 287.928L145.132 283.233L103.989 315.977L107.725 320.672ZM145.132 287.928L186.275 320.672L190.011 315.977L148.868 283.233L145.132 287.928ZM190.011 320.672L231.154 287.928L227.418 283.233L186.275 315.977L190.011 320.672ZM227.465 287.965L268.608 319.384L272.249 314.616L231.107 283.196L227.465 287.965ZM273.429 317V44.0847H267.429V317H273.429ZM273.429 44.0847C273.429 31.0845 262.865 20.5424 249.857 20.5424V26.5424C259.56 26.5424 267.429 34.4062 267.429 44.0847H273.429ZM249.857 20.5424H44.1429V26.5424H249.857V20.5424ZM44.1429 20.5424C31.1346 20.5424 20.5714 31.0845 20.5714 44.0847H26.5714C26.5714 34.4062 34.4403 26.5424 44.1429 26.5424V20.5424ZM20.5714 44.0847V316.671H26.5714V44.0847H20.5714ZM44.1429 6H249.857V0H44.1429V6ZM249.857 6C270.925 6 288 23.0565 288 44.0847H294C294 19.7348 274.231 0 249.857 0V6ZM288 44.0847V336.936H294V44.0847H288ZM291 333.936H271.797V339.936H291V333.936ZM273.557 334.507L231.046 303.694L227.525 308.552L270.036 339.365L273.557 334.507ZM227.487 303.721L186.344 334.535L189.941 339.337L231.084 308.524L227.487 303.721ZM189.941 334.535L148.798 303.721L145.202 308.524L186.344 339.337L189.941 334.535ZM145.202 303.721L104.059 334.535L107.656 339.337L148.798 308.524L145.202 303.721ZM107.656 334.535L66.5126 303.721L62.9159 308.524L104.059 339.337L107.656 334.535ZM62.9539 303.693L20.4327 334.507L23.9535 339.365L66.4746 308.552L62.9539 303.693ZM22.1931 333.936H3V339.936H22.1931V333.936ZM6 336.936V44.0847H0V336.936H6ZM6 44.0847C6 23.0565 23.0746 6 44.1429 6V0C19.7689 0 0 19.7348 0 44.0847H6Z" fill="#254FBB" mask="url(#path-4-outside-1_534_2887)"/>
</svg>
